<svg id="b44aecbc-c51b-47a8-8a41-e3cd65d37180" data-name="Desing" xmlns="http://www.w3.org/2000/svg" viewBox="0 0 1080 300"><defs><style>.f476bdb8-7d06-45c4-b002-5b63b59d4a0c{fill:#283a46;}.e69c92b4-7e41-4dc4-8660-6bc6514eb75f{fill:#ff5050;}</style></defs><title>Redbelly</title><path class="f476bdb8-7d06-45c4-b002-5b63b59d4a0c" d="M245.2,77.51,129.74,10.91a6.82,6.82,0,0,0-6.8,0L7.49,77.51a6.79,6.79,0,0,0-3.4,5.89V216.6a6.78,6.78,0,0,0,3.4,5.89l115.45,66.6a6.81,6.81,0,0,0,6.8,0l115.46-66.6a6.78,6.78,0,0,0,3.4-5.89V83.4A6.79,6.79,0,0,0,245.2,77.51ZM126.34,24.64,233.1,86.22a174.08,174.08,0,0,0-44.44,36.16C164.52,93.91,131,65.81,85.41,48.25ZM212.78,169a7.68,7.68,0,0,1-7-4.6,7.6,7.6,0,1,1,14.06,0A7.68,7.68,0,0,1,212.78,169Zm0-22.81a15.26,15.26,0,0,0-5.34,1c-4.35-6.42-9.06-13-14.39-19.55a169.16,169.16,0,0,1,39.46-33.21,369.29,369.29,0,0,0-19.19,51.81C213.14,146.23,213,146.18,212.78,146.18Zm-28.6-18.61a235.25,235.25,0,0,0-30,47.06C150.37,119.35,107.88,76,85.07,55.38,128.79,72.68,161,100,184.18,127.57Zm-34.75,71.11a7.67,7.67,0,0,1-7-4.6,7.43,7.43,0,0,1-.58-2.87,7.63,7.63,0,1,1,7.6,7.47Zm-2.09-22.6a15.2,15.2,0,0,0-3.82,1,269.34,269.34,0,0,0-57-57.34,15.19,15.19,0,0,0-9.87-22.57V57C97.65,75.56,143.92,119.72,147.34,176.08ZM80.33,115a7.67,7.67,0,0,1-14.06,0,7.6,7.6,0,1,1,14.06,0ZM69.88,57.22V97.16a15.25,15.25,0,0,0-8.94,5.9,248,248,0,0,0-39.3-18ZM17.69,97.09c10.14,15,30.09,47.12,42.17,83-.14.08-.28.15-.41.24A253.17,253.17,0,0,0,17.69,151ZM75.7,193a7.56,7.56,0,0,1-.57,2.86,7.67,7.67,0,0,1-14.06,0A7.59,7.59,0,1,1,75.7,193Zm-6.18,49.58-51.83-29.9v-53.9a244.24,244.24,0,0,1,37.1,26.71,15.17,15.17,0,0,0,12.37,22.75A134.4,134.4,0,0,1,69.52,242.58ZM76,246.34c1.35-12.84.4-26.07-2-39.2A15.87,15.87,0,0,0,76.12,206a290.65,290.65,0,0,1,45.94,66.87Zm49.72,18.8A297.12,297.12,0,0,0,81,201.36,15.31,15.31,0,0,0,68.1,177.65a14,14,0,0,0-1.71.18c-12.44-37.16-33-69.9-43.34-85A242.75,242.75,0,0,1,58.23,109.3a15.06,15.06,0,0,0-.28,2.78,15.34,15.34,0,0,0,24,12.65A262.24,262.24,0,0,1,138,181a15.16,15.16,0,0,0,3.7,23.39A357.42,357.42,0,0,0,125.75,265.14Zm5.71,7.27a349.43,349.43,0,0,1,16.69-66c.43,0,.84.13,1.28.13a15.16,15.16,0,0,0,4.88-.86,294,294,0,0,1,20.43,41.76ZM180.69,244a301.39,301.39,0,0,0-20.57-41.81,15.19,15.19,0,0,0-.76-22.6,229.34,229.34,0,0,1,29.21-46.71c4.85,6.06,9.19,12.07,13.2,18a15.25,15.25,0,0,0,4.43,24.47,300.88,300.88,0,0,0-6.07,57.47ZM207,228.84a296.93,296.93,0,0,1,5.88-52,15.37,15.37,0,0,0,4.36-.72,281.44,281.44,0,0,1,17,37ZM235,197c-3-6.94-7-15.19-11.89-24.14A15.21,15.21,0,0,0,219.85,148,367.33,367.33,0,0,1,235,105.51Z"/><path class="e69c92b4-7e41-4dc4-8660-6bc6514eb75f" d="M388.77,183.41l7.93,15.48H379.35l-7.93-15.48-8.31-16.22-.37-.75A15.38,15.38,0,0,0,349.6,159H334.11v39.88H318.62V112.21H373.4A23.23,23.23,0,0,1,389.88,119a23.51,23.51,0,0,1-6.81,37.89,20.81,20.81,0,0,1-6.7,1.86ZM373.4,143.54a7.18,7.18,0,0,0,3.22-.75,7.86,7.86,0,0,0,4.71-7.18,8.21,8.21,0,0,0-2.35-5.7,7.85,7.85,0,0,0-5.58-2.23H334.11v16Z"/><path class="f476bdb8-7d06-45c4-b002-5b63b59d4a0c" d="M717.39,171.15a27.65,27.65,0,0,1-27.64,27.61H630.63V112.08h54.66a23.48,23.48,0,0,1,23.42,23.41A23,23,0,0,1,705,148.12,27.62,27.62,0,0,1,717.39,171.15Zm-71.27-27.74h39.29a7.93,7.93,0,1,0,0-15.85H646.12Zm43.63,39.75a12.14,12.14,0,1,0,0-24.27H646.12v24.39h43.63Z"/><path class="f476bdb8-7d06-45c4-b002-5b63b59d4a0c" d="M904,183.41v15.48H864.79A26.88,26.88,0,0,1,852.65,196a27.46,27.46,0,0,1-12.52-12.63,26.91,26.91,0,0,1-2.85-12.14V112.21h15.49v60.55a12.34,12.34,0,0,0,10.53,10.52Z"/><path class="f476bdb8-7d06-45c4-b002-5b63b59d4a0c" d="M992.46,183.41v15.48H953.22A26.88,26.88,0,0,1,941.08,196a27.46,27.46,0,0,1-12.52-12.63,26.91,26.91,0,0,1-2.85-12.14V112.21H941.2v60.55a12.34,12.34,0,0,0,10.53,10.52Z"/><path class="f476bdb8-7d06-45c4-b002-5b63b59d4a0c" d="M984.4,198.76h.25l-.25.25Zm91.51-86.8-33.58,43.46-1.86,2.36v40.86H1025V158l-2.1-2.6L989.28,112h19.58l23.8,30.83,23.8-30.83Z"/><path class="e69c92b4-7e41-4dc4-8660-6bc6514eb75f" d="M494.56,127.68V112.21H423.42v63.15a23.36,23.36,0,0,0,23.3,23.4h47.84V183.28H446.72a8,8,0,0,1-7.93-7.92l.12-16.35h55.65V143.54H438.91V127.68Z"/><path class="f476bdb8-7d06-45c4-b002-5b63b59d4a0c" d="M811.18,127.68V112.21H740v63.15a23.36,23.36,0,0,0,23.3,23.4h47.84V183.28H763.34a8,8,0,0,1-7.93-7.92l.13-16.35h55.64V143.54H755.54V127.68Z"/><path class="e69c92b4-7e41-4dc4-8660-6bc6514eb75f" d="M565.44,112.21l.13-.13H522.19v86.68h43.38A42.61,42.61,0,0,0,596.05,186c.87-.87,1.74-1.73,2.48-2.6a43.21,43.21,0,0,0-33.09-71.2Zm0,71.2-27.88-.08V127.69h27.88a27.86,27.86,0,1,1,0,55.72Z"/></svg>